<svg width="203" height="37" viewBox="0 0 203 37" fill="none" xmlns="http://www.w3.org/2000/svg">
<path d="M0.517578 18.5C0.517578 15.0667 1.28424 12 2.81758 9.3C4.38424 6.56666 6.50091 4.45 9.16758 2.95C11.8676 1.41667 14.8842 0.649999 18.2176 0.649999C22.1176 0.649999 25.5342 1.65 28.4676 3.65C31.4009 5.65 33.4509 8.41667 34.6176 11.95H26.5676C25.7676 10.2833 24.6342 9.03333 23.1676 8.2C21.7342 7.36666 20.0676 6.95 18.1676 6.95C16.1342 6.95 14.3176 7.43333 12.7176 8.4C11.1509 9.33333 9.91758 10.6667 9.01758 12.4C8.15091 14.1333 7.71758 16.1667 7.71758 18.5C7.71758 20.8 8.15091 22.8333 9.01758 24.6C9.91758 26.3333 11.1509 27.6833 12.7176 28.65C14.3176 29.5833 16.1342 30.05 18.1676 30.05C20.0676 30.05 21.7342 29.6333 23.1676 28.8C24.6342 27.9333 25.7676 26.6667 26.5676 25H34.6176C33.4509 28.5667 31.4009 31.35 28.4676 33.35C25.5676 35.3167 22.1509 36.3 18.2176 36.3C14.8842 36.3 11.8676 35.55 9.16758 34.05C6.50091 32.5167 4.38424 30.4 2.81758 27.7C1.28424 25 0.517578 21.9333 0.517578 18.5ZM57.3465 36L49.6465 22.4H46.3465V36H39.3465V1.1H52.4465C55.1465 1.1 57.4465 1.58333 59.3465 2.55C61.2465 3.48333 62.6632 4.76667 63.5965 6.4C64.5632 8 65.0465 9.8 65.0465 11.8C65.0465 14.1 64.3798 16.1833 63.0465 18.05C61.7132 19.8833 59.7298 21.15 57.0965 21.85L65.4465 36H57.3465ZM46.3465 17.15H52.1965C54.0965 17.15 55.5132 16.7 56.4465 15.8C57.3798 14.8667 57.8465 13.5833 57.8465 11.95C57.8465 10.35 57.3798 9.11667 56.4465 8.25C55.5132 7.35 54.0965 6.9 52.1965 6.9H46.3465V17.15ZM77.1277 6.75V15.5H88.8777V21.05H77.1277V30.3H90.3777V36H70.1277V1.05H90.3777V6.75H77.1277ZM116.889 29.35H102.989L100.689 36H93.3391L105.889 1.05H114.039L126.589 36H119.189L116.889 29.35ZM114.989 23.75L109.939 9.15L104.889 23.75H114.989ZM153.78 1.1V6.75H144.48V36H137.48V6.75H128.18V1.1H153.78ZM164.638 1.1V36H157.638V1.1H164.638ZM168.604 18.5C168.604 15.0667 169.37 12 170.904 9.3C172.47 6.56666 174.587 4.45 177.254 2.95C179.954 1.41667 182.97 0.649999 186.304 0.649999C190.204 0.649999 193.62 1.65 196.554 3.65C199.487 5.65 201.537 8.41667 202.704 11.95H194.654C193.854 10.2833 192.72 9.03333 191.254 8.2C189.82 7.36666 188.154 6.95 186.254 6.95C184.22 6.95 182.404 7.43333 180.804 8.4C179.237 9.33333 178.004 10.6667 177.104 12.4C176.237 14.1333 175.804 16.1667 175.804 18.5C175.804 20.8 176.237 22.8333 177.104 24.6C178.004 26.3333 179.237 27.6833 180.804 28.65C182.404 29.5833 184.22 30.05 186.254 30.05C188.154 30.05 189.82 29.6333 191.254 28.8C192.72 27.9333 193.854 26.6667 194.654 25H202.704C201.537 28.5667 199.487 31.35 196.554 33.35C193.654 35.3167 190.237 36.3 186.304 36.3C182.97 36.3 179.954 35.55 177.254 34.05C174.587 32.5167 172.47 30.4 170.904 27.7C169.37 25 168.604 21.9333 168.604 18.5Z" fill="#6D95FC"/>
</svg>
